<svg width="94" height="18" viewBox="0 0 94 18" fill="none" xmlns="http://www.w3.org/2000/svg">
<path fill-rule="evenodd" clip-rule="evenodd" d="M23.9501 6.83404H29.4417V14.683H29.4816C31.6501 14.683 33.4081 12.9761 33.4081 10.8702V6.83404H39.0524V3.5752H23.9501V6.83404Z" fill="white"/>
<path fill-rule="evenodd" clip-rule="evenodd" d="M50.2411 11.4261H46.4667C45.1502 11.4261 44.0127 10.446 43.9512 9.16902C43.8859 7.81111 45.0047 6.68586 46.3894 6.68586H50.1637C51.4801 6.68586 52.6178 7.6661 52.6791 8.94292C52.7444 10.3012 51.6255 11.4261 50.2411 11.4261ZM51.1738 3.42719H45.4567C42.2683 3.42719 39.6598 5.96014 39.6598 9.05597C39.6598 12.1518 42.2683 14.6849 45.4567 14.6849H51.1738C54.362 14.6849 56.9707 12.1518 56.9707 9.05597C56.9707 5.96014 54.362 3.42719 51.1738 3.42719Z" fill="white"/>
<path fill-rule="evenodd" clip-rule="evenodd" d="M86.8216 11.4261H83.0472C81.7307 11.4261 80.593 10.446 80.5315 9.16902C80.4662 7.81111 81.5852 6.68586 82.9697 6.68586H86.7442C88.0605 6.68586 89.1983 7.6661 89.2596 8.94292C89.3249 10.3012 88.206 11.4261 86.8216 11.4261ZM87.7543 3.42719H82.037C78.8488 3.42719 76.2403 5.96014 76.2403 9.05597C76.2403 12.1518 78.8488 14.6849 82.037 14.6849H87.7543C90.9425 14.6849 93.551 12.1518 93.551 9.05597C93.551 5.96014 90.9425 3.42719 87.7543 3.42719Z" fill="white"/>
<path fill-rule="evenodd" clip-rule="evenodd" d="M69.8672 7.58532C69.8672 8.14971 69.3915 8.61182 68.8099 8.61182H63.4595V6.53812H68.8099C69.3915 6.53812 69.8672 7.00006 69.8672 7.56479V7.58532ZM73.8842 7.75388C73.8842 6.64528 73.4176 5.63795 72.6642 4.90601C71.912 4.17575 70.8744 3.72272 69.7329 3.72272H59.0361V9.98285V11.8703V14.5362H63.307V11.8703H67.8224L69.4065 14.5362H73.8842L71.9634 11.1488C73.1157 10.4302 73.8842 9.17487 73.8842 7.75388Z" fill="white"/>
<path fill-rule="evenodd" clip-rule="evenodd" d="M8.69537 17.8859V13.4638C8.69537 13.4162 8.63993 13.3891 8.60043 13.4175C6.34135 15.0449 3.77026 16.5287 0.942945 17.8338C0.885775 17.8603 0.905178 17.9438 0.968585 17.9438H8.63577C8.66869 17.9438 8.69537 17.9177 8.69537 17.8859Z" fill="#00E3FF"/>
<mask id="mask0_1_141" style="mask-type:luminance" maskUnits="userSpaceOnUse" x="0" y="0" width="18" height="12">
<path fill-rule="evenodd" clip-rule="evenodd" d="M0 5.93378V0.168213H17.8583V11.6994H0V5.93378Z" fill="white"/>
</mask>
<g mask="url(#mask0_1_141)">
<path fill-rule="evenodd" clip-rule="evenodd" d="M17.8473 0.259498C17.8752 0.221143 17.8467 0.168152 17.7986 0.168152H6.1534C2.75507 0.168152 0 2.82122 0 6.09385V11.6414C0 11.6811 0.0401922 11.709 0.0788253 11.6962C8.02268 9.09834 14.3479 5.04514 17.8473 0.259498Z" fill="#00E3FF"/>
</g>
<path fill-rule="evenodd" clip-rule="evenodd" d="M11.8988 10.8815V17.886C11.8988 17.9178 11.9255 17.9437 11.9584 17.9437H12.1528C15.551 17.9437 18.3059 15.2908 18.3059 12.0181V1.80037C18.3059 1.73527 18.2121 1.71979 18.1901 1.78136C17.0396 5.01026 14.8843 8.07732 11.917 10.8399C11.9054 10.8507 11.8988 10.8656 11.8988 10.8815Z" fill="#00E3FF"/>
</svg>
